<svg xmlns="http://www.w3.org/2000/svg" width="600" height="340" viewBox="0 0 600 340">
  <defs>
    <linearGradient id="bg2" x1="0%" y1="0%" x2="100%" y2="100%">
      <stop offset="0%"   stop-color="#011142"/>
      <stop offset="50%"  stop-color="#011C6B"/>
      <stop offset="100%" stop-color="#3778C2"/>
    </linearGradient>
    <radialGradient id="bg3" cx="70%" cy="28%" r="48%">
      <stop offset="0%" stop-color="#01258F" stop-opacity="0.55"/>
      <stop offset="100%" stop-color="#011142" stop-opacity="0"/>
    </radialGradient>
  </defs>
  <rect width="600" height="340" fill="url(#bg2)"/>
  <rect width="600" height="340" fill="url(#bg3)"/>

  <ellipse cx="515" cy="58"  rx="305" ry="182" fill="rgba(1,37,143,0.25)"  transform="rotate(-13 515 58)"/>
  <ellipse cx="85"  cy="282" rx="265" ry="152" fill="rgba(55,120,194,0.18)" transform="rotate(8 85 282)"/>

  <!-- Axes -->
  <line x1="100" y1="270" x2="520" y2="270" stroke="rgba(75,159,225,0.5)" stroke-width="1.5"/>
  <line x1="100" y1="100" x2="100" y2="270" stroke="rgba(75,159,225,0.5)" stroke-width="1.5"/>
  <!-- Grid -->
  <line x1="100" y1="200" x2="520" y2="200" stroke="rgba(75,159,225,0.14)" stroke-width="1" stroke-dasharray="4 4"/>
  <line x1="100" y1="160" x2="520" y2="160" stroke="rgba(75,159,225,0.14)" stroke-width="1" stroke-dasharray="4 4"/>
  <line x1="100" y1="130" x2="520" y2="130" stroke="rgba(75,159,225,0.14)" stroke-width="1" stroke-dasharray="4 4"/>

  <!-- Bars -->
  <rect x="128" y="210" width="50" height="60"  rx="4" fill="rgba(1,37,143,0.85)"  stroke="rgba(75,159,225,0.45)" stroke-width="1"/>
  <rect x="208" y="175" width="50" height="95"  rx="4" fill="rgba(55,120,194,0.8)"  stroke="rgba(75,159,225,0.45)" stroke-width="1"/>
  <rect x="288" y="145" width="50" height="125" rx="4" fill="rgba(75,159,225,0.85)" stroke="rgba(75,159,225,0.45)" stroke-width="1"/>
  <rect x="368" y="125" width="50" height="145" rx="4" fill="#4B9FE1"               stroke="rgba(255,255,255,0.25)" stroke-width="1"/>
  <rect x="448" y="148" width="50" height="122" rx="4" fill="rgba(75,159,225,0.8)"  stroke="rgba(75,159,225,0.45)" stroke-width="1"/>

  <!-- Trend line -->
  <polyline points="153,210 233,175 313,145 393,125 473,148" stroke="rgba(255,255,255,0.55)" stroke-width="2" fill="none" stroke-dasharray="5 3"/>
  <circle cx="153" cy="210" r="4" fill="rgba(255,255,255,0.75)"/>
  <circle cx="233" cy="175" r="4" fill="rgba(255,255,255,0.75)"/>
  <circle cx="313" cy="145" r="4" fill="rgba(255,255,255,0.75)"/>
  <circle cx="393" cy="125" r="5" fill="#fff"/>
  <circle cx="473" cy="148" r="4" fill="rgba(255,255,255,0.75)"/>

  <circle cx="55"  cy="46"  r="3"   fill="rgba(255,255,255,0.38)"/>
  <circle cx="430" cy="40"  r="3.5" fill="rgba(75,159,225,0.55)"/>
  <circle cx="548" cy="278" r="3"   fill="rgba(55,120,194,0.5)"/>

  <text x="300" y="52" font-family="Georgia,serif" font-size="20" font-weight="800" fill="rgba(255,255,255,0.92)" text-anchor="middle" letter-spacing="2">BUSINESS</text>
  <line x1="195" y1="62" x2="405" y2="62" stroke="rgba(75,159,225,0.55)" stroke-width="1.5"/>
</svg>
