<svg xmlns="http://www.w3.org/2000/svg" width="600" height="340" viewBox="0 0 600 340">
  <defs>
    <linearGradient id="sg" x1="0%" y1="0%" x2="100%" y2="100%">
      <stop offset="0%"   stop-color="#011142"/>
      <stop offset="45%"  stop-color="#011C6B"/>
      <stop offset="100%" stop-color="#01258F"/>
    </linearGradient>
    <radialGradient id="sg2" cx="65%" cy="35%" r="48%">
      <stop offset="0%" stop-color="#3778C2" stop-opacity="0.5"/>
      <stop offset="100%" stop-color="#011142" stop-opacity="0"/>
    </radialGradient>
  </defs>
  <rect width="600" height="340" fill="url(#sg)"/>
  <rect width="600" height="340" fill="url(#sg2)"/>

  <ellipse cx="530" cy="55"  rx="310" ry="185" fill="rgba(1,37,143,0.25)"  transform="rotate(-14 530 55)"/>
  <ellipse cx="70"  cy="285" rx="270" ry="155" fill="rgba(55,120,194,0.18)" transform="rotate(9 70 285)"/>

  <!-- Pitch -->
  <rect x="80" y="90" width="440" height="200" rx="4" fill="none" stroke="rgba(75,159,225,0.38)" stroke-width="1.5"/>
  <line x1="300" y1="90" x2="300" y2="290" stroke="rgba(75,159,225,0.32)" stroke-width="1.5"/>
  <circle cx="300" cy="190" r="50" fill="none" stroke="rgba(75,159,225,0.32)" stroke-width="1.5"/>
  <circle cx="300" cy="190" r="4" fill="rgba(75,159,225,0.6)"/>
  <rect x="80" y="140" width="100" height="100" rx="2" fill="none" stroke="rgba(75,159,225,0.28)" stroke-width="1.5"/>
  <rect x="80" y="162" width="44" height="56" rx="2" fill="none" stroke="rgba(75,159,225,0.22)" stroke-width="1.2"/>
  <rect x="420" y="140" width="100" height="100" rx="2" fill="none" stroke="rgba(75,159,225,0.28)" stroke-width="1.5"/>
  <rect x="476" y="162" width="44" height="56" rx="2" fill="none" stroke="rgba(75,159,225,0.22)" stroke-width="1.2"/>
  <path d="M80 90 Q96 90 96 106" fill="none" stroke="rgba(75,159,225,0.22)" stroke-width="1"/>
  <path d="M520 90 Q504 90 504 106" fill="none" stroke="rgba(75,159,225,0.22)" stroke-width="1"/>
  <path d="M80 290 Q96 290 96 274" fill="none" stroke="rgba(75,159,225,0.22)" stroke-width="1"/>
  <path d="M520 290 Q504 290 504 274" fill="none" stroke="rgba(75,159,225,0.22)" stroke-width="1"/>

  <!-- Ball -->
  <circle cx="300" cy="190" r="22" fill="rgba(255,255,255,0.08)" stroke="rgba(255,255,255,0.32)" stroke-width="1.5"/>
  <polygon points="300,172 309,178 306,188 294,188 291,178" fill="rgba(255,255,255,0.22)" stroke="rgba(255,255,255,0.22)" stroke-width="0.8"/>

  <circle cx="52"  cy="45"  r="3"   fill="rgba(255,255,255,0.38)"/>
  <circle cx="435" cy="42"  r="3.5" fill="rgba(75,159,225,0.55)"/>
  <circle cx="550" cy="280" r="3"   fill="rgba(55,120,194,0.5)"/>

  <text x="300" y="52" font-family="Georgia,serif" font-size="22" font-weight="800" fill="rgba(255,255,255,0.92)" text-anchor="middle" letter-spacing="1">SPORTS</text>
  <line x1="215" y1="62" x2="385" y2="62" stroke="rgba(75,159,225,0.55)" stroke-width="1.5"/>
</svg>
