<svg xmlns="http://www.w3.org/2000/svg" width="600" height="340" viewBox="0 0 600 340">
  <defs>
    <linearGradient id="fg" x1="0%" y1="0%" x2="100%" y2="100%">
      <stop offset="0%"   stop-color="#011142"/>
      <stop offset="45%"  stop-color="#011C6B"/>
      <stop offset="100%" stop-color="#01258F"/>
    </linearGradient>
    <radialGradient id="fg2" cx="65%" cy="30%" r="50%">
      <stop offset="0%" stop-color="#3778C2" stop-opacity="0.5"/>
      <stop offset="100%" stop-color="#011142" stop-opacity="0"/>
    </radialGradient>
  </defs>
  <rect width="600" height="340" fill="url(#fg)"/>
  <rect width="600" height="340" fill="url(#fg2)"/>

  <ellipse cx="520" cy="60"  rx="310" ry="185" fill="rgba(1,37,143,0.25)"  transform="rotate(-12 520 60)"/>
  <ellipse cx="80"  cy="280" rx="270" ry="155" fill="rgba(55,120,194,0.18)" transform="rotate(9 80 280)"/>

  <!-- Bowl -->
  <ellipse cx="300" cy="210" rx="145" ry="28" fill="rgba(1,17,66,0.55)" stroke="rgba(75,159,225,0.32)" stroke-width="1.5"/>
  <ellipse cx="300" cy="195" rx="140" ry="70" fill="rgba(1,17,66,0.5)" stroke="rgba(75,159,225,0.42)" stroke-width="2"/>
  <path d="M160 195 Q300 168 440 195" stroke="rgba(75,159,225,0.38)" stroke-width="1.5" fill="none"/>

  <!-- Pasta swirls -->
  <path d="M260 185 Q280 165 300 185 Q320 205 340 185" stroke="rgba(75,159,225,0.75)" stroke-width="3" fill="none" stroke-linecap="round"/>
  <path d="M250 200 Q270 178 295 200 Q318 220 340 200" stroke="rgba(55,120,194,0.72)" stroke-width="3" fill="none" stroke-linecap="round"/>
  <path d="M270 215 Q292 195 315 215 Q335 228 355 215" stroke="rgba(75,159,225,0.65)" stroke-width="2.5" fill="none" stroke-linecap="round"/>

  <!-- Steam -->
  <path d="M260 150 Q255 130 265 112 Q275 94 268 78" stroke="rgba(255,255,255,0.22)" stroke-width="2" fill="none" stroke-linecap="round"/>
  <path d="M300 145 Q295 124 305 108 Q315 92 308 76" stroke="rgba(255,255,255,0.18)" stroke-width="2" fill="none" stroke-linecap="round"/>
  <path d="M340 150 Q336 130 344 112 Q352 94 346 78" stroke="rgba(255,255,255,0.15)" stroke-width="2" fill="none" stroke-linecap="round"/>

  <!-- Fork -->
  <line x1="140" y1="140" x2="140" y2="260" stroke="rgba(255,255,255,0.48)" stroke-width="3" stroke-linecap="round"/>
  <line x1="128" y1="140" x2="128" y2="170" stroke="rgba(255,255,255,0.38)" stroke-width="2" stroke-linecap="round"/>
  <line x1="136" y1="140" x2="136" y2="170" stroke="rgba(255,255,255,0.38)" stroke-width="2" stroke-linecap="round"/>
  <line x1="144" y1="140" x2="144" y2="170" stroke="rgba(255,255,255,0.38)" stroke-width="2" stroke-linecap="round"/>
  <line x1="152" y1="140" x2="152" y2="170" stroke="rgba(255,255,255,0.38)" stroke-width="2" stroke-linecap="round"/>

  <!-- Knife -->
  <line x1="460" y1="140" x2="460" y2="260" stroke="rgba(255,255,255,0.48)" stroke-width="3" stroke-linecap="round"/>
  <path d="M460 140 Q480 155 460 175" fill="rgba(255,255,255,0.2)" stroke="rgba(255,255,255,0.38)" stroke-width="1.5"/>

  <circle cx="55"  cy="45"  r="3"   fill="rgba(255,255,255,0.38)"/>
  <circle cx="432" cy="40"  r="3.5" fill="rgba(75,159,225,0.55)"/>
  <circle cx="548" cy="278" r="3"   fill="rgba(55,120,194,0.5)"/>

  <text x="300" y="52" font-family="Georgia,serif" font-size="22" font-weight="800" fill="rgba(255,255,255,0.92)" text-anchor="middle" letter-spacing="1">FOOD</text>
  <line x1="230" y1="62" x2="370" y2="62" stroke="rgba(75,159,225,0.55)" stroke-width="1.5"/>
</svg>
